<?xml version="1.0" encoding="UTF-8" standalone="no"?>
<!-- Created with Inkscape (http://www.inkscape.org/) -->

<svg
   width="128"
   height="128"
   viewBox="0 0 33.866666 33.866667"
   version="1.1"
   id="svg5"
   xml:space="preserve"
   sodipodi:docname="icon.svg"
   inkscape:version="1.2.2 (b0a8486541, 2022-12-01)"
   xmlns:inkscape="http://www.inkscape.org/namespaces/inkscape"
   xmlns:sodipodi="http://sodipodi.sourceforge.net/DTD/sodipodi-0.dtd"
   xmlns="http://www.w3.org/2000/svg"
   xmlns:svg="http://www.w3.org/2000/svg"><sodipodi:namedview
     id="namedview7"
     pagecolor="#ffffff"
     bordercolor="#000000"
     borderopacity="0.25"
     inkscape:showpageshadow="2"
     inkscape:pageopacity="0.0"
     inkscape:pagecheckerboard="0"
     inkscape:deskcolor="#d1d1d1"
     inkscape:document-units="mm"
     showgrid="false"
     inkscape:zoom="3.5705387"
     inkscape:cx="155.01862"
     inkscape:cy="56.013956"
     inkscape:window-width="2560"
     inkscape:window-height="1369"
     inkscape:window-x="2552"
     inkscape:window-y="-8"
     inkscape:window-maximized="1"
     inkscape:current-layer="layer1" /><defs
     id="defs2" /><g
     inkscape:label="Taso 1"
     inkscape:groupmode="layer"
     id="layer1"
     transform="translate(-0.29640716)"><path
       style="fill:#000000;fill-opacity:1;stroke-width:0.255922"
       d="M 2.5801505,18.608473 V 14.257802 H 3.9877223 5.395294 v 4.350671 4.350672 H 3.9877223 2.5801505 Z m 3.3269904,0 v -4.350671 h 5.5023181 5.502318 v 4.350671 4.350672 h -1.27961 -1.27961 V 20.016043 17.072942 H 11.409459 8.4663535 v 2.943101 2.943102 h -1.2796026 -1.27961 z m 11.7723991,0 v -4.350671 h 5.508513 5.508506 l -0.07015,4.286691 -0.07015,4.286691 -1.343588,0.07735 -1.343594,0.07736 V 20.029417 17.072942 H 23.181901 20.49472 v 2.943101 2.943102 H 19.087148 17.679576 Z M 29.196023,18.352551 V 13.745958 H 15.88809 2.5801505 V 12.466349 11.18674 H 17.1677 31.755243 v 5.886202 5.886203 h -1.27961 -1.27961 z"
       id="path181" /></g></svg>
